<?xml version="1.0" standalone="no"?>
<!DOCTYPE svg PUBLIC "-//W3C//DTD SVG 20010904//EN"
 "http://www.w3.org/TR/2001/REC-SVG-20010904/DTD/svg10.dtd">
<svg version="1.0" xmlns="http://www.w3.org/2000/svg"
 width="512.000000pt" height="512.000000pt" viewBox="0 0 512.000000 512.000000"
 preserveAspectRatio="xMidYMid meet">

<g transform="translate(0.000000,512.000000) scale(0.100000,-0.100000)"
fill="#000000" stroke="none">
<path d="M0 2560 l0 -2560 2560 0 2560 0 0 2560 0 2560 -2560 0 -2560 0 0
-2560z m2661 2220 c138 -26 263 -122 322 -247 30 -64 32 -74 32 -183 0 -104
-3 -120 -27 -174 l-28 -58 138 -152 c75 -83 190 -210 256 -283 l118 -131 56
19 c76 26 203 26 280 -1 131 -46 234 -153 273 -282 31 -102 24 -219 -18 -311
-110 -235 -385 -325 -613 -201 -68 37 -150 127 -181 197 l-24 57 -120 0 -120
0 -23 -52 c-22 -50 -22 -52 -4 -72 92 -103 494 -546 495 -546 1 0 31 9 65 20
149 47 309 9 424 -98 150 -140 181 -363 75 -540 l-31 -52 -375 0 c-371 0 -374
0 -356 20 17 18 16 21 -6 75 l-23 55 -120 0 -121 0 -27 -58 c-50 -103 19 -93
-607 -90 l-552 3 168 89 168 89 -2 90 c-1 74 -5 91 -20 102 -10 6 -94 51 -188
100 l-170 87 -68 -46 c-101 -68 -218 -96 -322 -77 -124 23 -231 93 -295 193
-138 213 -64 505 157 621 156 81 323 71 460 -29 27 -19 53 -37 60 -40 6 -3 95
39 197 93 l186 98 0 91 0 92 -183 96 c-101 53 -187 96 -190 96 -4 0 -29 -16
-56 -35 -232 -167 -537 -93 -662 160 -33 67 -34 74 -34 185 0 109 2 119 32
182 36 77 107 158 171 195 161 95 374 79 506 -38 l36 -31 187 99 188 98 5 105
c5 90 10 114 37 173 69 146 227 250 389 256 17 1 55 -4 85 -9z m-2171 -630
c45 -12 355 -320 365 -363 18 -69 3 -93 -168 -264 -136 -135 -168 -162 -199
-168 -51 -10 -85 0 -119 35 -24 24 -29 37 -29 80 0 47 4 55 45 99 25 26 45 51
45 55 0 3 -53 6 -117 6 -135 0 -173 14 -199 75 -18 43 -18 59 1 99 26 55 58
66 194 66 67 0 121 3 121 7 0 4 -18 26 -41 49 -78 79 -66 179 26 220 37 16 33
16 75 4z m4178 -604 c41 -22 330 -317 342 -350 23 -63 7 -91 -149 -249 -175
-179 -190 -190 -247 -190 -53 0 -91 24 -111 70 -22 54 -10 97 44 154 l46 49
-109 1 c-129 0 -170 12 -201 58 -40 59 -23 133 40 171 27 17 51 20 151 20
l119 0 -46 49 c-30 32 -48 62 -53 86 -18 96 88 176 174 131z m-4132 -615 c62
-46 302 -294 313 -324 29 -75 7 -109 -185 -292 -148 -141 -167 -155 -199 -155
-73 0 -125 47 -125 113 0 48 12 71 63 125 l41 42 -125 0 c-115 0 -129 2 -160
23 -64 43 -70 134 -13 188 24 23 34 24 160 27 l135 4 -51 55 c-46 50 -50 58
-50 105 0 44 4 54 34 84 46 46 105 48 162 5z m4128 -581 c36 -17 314 -294 340
-337 14 -26 9 -81 -12 -115 -12 -18 -63 -72 -116 -120 l-94 -88 -141 0 c-136
0 -141 1 -141 21 0 11 23 44 50 74 l51 53 -128 3 c-146 4 -174 15 -200 76 -20
49 -9 99 29 135 30 28 31 28 159 28 71 0 129 3 129 6 0 3 -20 28 -45 56 -25
28 -47 64 -51 83 -10 58 33 123 91 138 34 8 38 8 79 -13z m-3034 -586 c36 -17
76 -41 90 -52 l25 -21 -288 -1 c-187 0 -286 3 -282 10 10 16 96 63 150 83 38
13 73 17 145 14 82 -2 104 -7 160 -33z m-1122 -8 c15 -8 38 -26 51 -40 l24
-26 -116 0 c-64 0 -117 4 -117 8 0 11 51 58 70 65 27 10 61 7 88 -7z"/>
<path d="M2503 4521 c-50 -23 -99 -86 -108 -140 -13 -80 39 -177 112 -207 42
-18 127 -18 162 0 42 22 89 81 101 127 32 117 -62 239 -185 239 -22 0 -59 -9
-82 -19z"/>
<path d="M2080 3942 l-185 -97 0 -93 0 -93 185 -98 185 -98 50 38 c84 63 137
82 250 87 117 5 184 -14 274 -76 62 -42 135 -135 152 -193 l12 -39 124 0 c79
0 123 4 123 10 0 6 9 30 20 52 19 40 19 42 2 62 -9 11 -124 139 -256 284 -178
196 -242 262 -255 257 -48 -19 -132 -35 -182 -35 -95 0 -232 53 -283 109 -11
12 -22 21 -25 21 -3 0 -89 -44 -191 -98z"/>
<path d="M1435 3943 c-53 -9 -67 -16 -101 -46 -113 -99 -88 -264 48 -322 144
-59 298 75 258 224 -11 43 -58 104 -94 123 -26 14 -84 25 -111 21z"/>
<path d="M2499 3327 c-24 -13 -57 -43 -74 -66 -26 -37 -30 -52 -30 -106 0 -54
4 -69 30 -106 39 -54 95 -84 160 -84 65 0 121 30 160 84 26 37 30 52 30 106 0
54 -4 69 -30 106 -37 52 -103 89 -160 89 -25 0 -60 -10 -86 -23z"/>
<path d="M3579 3327 c-24 -13 -57 -43 -74 -66 -26 -37 -30 -52 -30 -106 0 -54
4 -69 30 -106 78 -110 238 -113 316 -6 118 163 -65 377 -242 284z"/>
<path d="M2075 2750 l-190 -100 0 -90 0 -90 193 -101 192 -101 35 31 c133 117
346 133 507 38 64 -37 136 -119 169 -192 l29 -65 115 0 115 0 25 56 c21 47 23
60 13 73 -7 9 -123 136 -257 284 -183 202 -248 266 -260 261 -47 -19 -123 -34
-178 -34 -98 0 -235 52 -287 109 -11 12 -22 21 -25 21 -3 0 -91 -46 -196 -100z"/>
<path d="M1375 2736 c-106 -47 -147 -195 -79 -287 52 -70 149 -99 231 -68 64
24 123 109 123 179 0 70 -59 155 -123 179 -38 15 -115 13 -152 -3z"/>
<path d="M2517 2145 c-136 -48 -169 -226 -61 -327 37 -34 74 -48 129 -48 55 0
92 14 129 48 158 147 6 400 -197 327z"/>
<path d="M3585 2141 c-128 -59 -153 -225 -49 -323 37 -34 74 -48 129 -48 81 0
141 39 176 115 75 161 -94 331 -256 256z"/>
</g>
</svg>
